<mxfile host="app.diagrams.net" agent="Mozilla/5.0 (Windows NT 10.0; Win64; x64) AppleWebKit/537.36 (KHTML, like Gecko) Chrome/132.0.0.0 Safari/537.36" version="26.0.6">
  <diagram name="Page-1" id="oOnUDYet67SNyl4n0U7W">
    <mxGraphModel dx="1050" dy="562" grid="1" gridSize="10" guides="1" tooltips="1" connect="1" arrows="1" fold="1" page="1" pageScale="1" pageWidth="850" pageHeight="1100" math="0" shadow="0">
      <root>
        <mxCell id="0" />
        <mxCell id="1" parent="0" />
        <mxCell id="A64FUQjrGfB-0dtbxXoB-30" style="edgeStyle=orthogonalEdgeStyle;rounded=0;orthogonalLoop=1;jettySize=auto;html=1;entryX=0.5;entryY=0;entryDx=0;entryDy=0;" edge="1" parent="1" source="A64FUQjrGfB-0dtbxXoB-1" target="A64FUQjrGfB-0dtbxXoB-3">
          <mxGeometry relative="1" as="geometry" />
        </mxCell>
        <mxCell id="A64FUQjrGfB-0dtbxXoB-31" style="edgeStyle=orthogonalEdgeStyle;rounded=0;orthogonalLoop=1;jettySize=auto;html=1;exitX=0.5;exitY=1;exitDx=0;exitDy=0;entryX=0.5;entryY=0;entryDx=0;entryDy=0;" edge="1" parent="1" source="A64FUQjrGfB-0dtbxXoB-1" target="A64FUQjrGfB-0dtbxXoB-4">
          <mxGeometry relative="1" as="geometry" />
        </mxCell>
        <mxCell id="A64FUQjrGfB-0dtbxXoB-1" value="&lt;p&gt;&lt;b style=&quot;font-family: &amp;quot;Times New Roman&amp;quot;; font-size: 14px;&quot;&gt;User Management&lt;/b&gt;&lt;/p&gt;" style="ellipse;whiteSpace=wrap;html=1;" vertex="1" parent="1">
          <mxGeometry x="380" y="110" width="140" height="100" as="geometry" />
        </mxCell>
        <mxCell id="A64FUQjrGfB-0dtbxXoB-2" value="&lt;b style=&quot;font-family: &amp;quot;Times New Roman&amp;quot;; font-size: 14px;&quot;&gt;User Registration&lt;/b&gt;" style="ellipse;whiteSpace=wrap;html=1;" vertex="1" parent="1">
          <mxGeometry x="220" y="265" width="140" height="95" as="geometry" />
        </mxCell>
        <mxCell id="A64FUQjrGfB-0dtbxXoB-3" value="&lt;b style=&quot;font-family: &amp;quot;Times New Roman&amp;quot;; font-size: 14px;&quot;&gt;User Profile&amp;nbsp;&lt;/b&gt;&lt;div&gt;&lt;b style=&quot;font-family: &amp;quot;Times New Roman&amp;quot;; font-size: 14px;&quot;&gt;Management&lt;/b&gt;&lt;/div&gt;" style="ellipse;whiteSpace=wrap;html=1;" vertex="1" parent="1">
          <mxGeometry x="550" y="265" width="150" height="95" as="geometry" />
        </mxCell>
        <mxCell id="A64FUQjrGfB-0dtbxXoB-4" value="&lt;b style=&quot;font-family: &amp;quot;Times New Roman&amp;quot;; font-size: 14px;&quot;&gt;User Login&lt;/b&gt;" style="ellipse;whiteSpace=wrap;html=1;" vertex="1" parent="1">
          <mxGeometry x="375" y="265" width="150" height="95" as="geometry" />
        </mxCell>
        <mxCell id="A64FUQjrGfB-0dtbxXoB-28" style="edgeStyle=orthogonalEdgeStyle;rounded=0;orthogonalLoop=1;jettySize=auto;html=1;entryX=0.438;entryY=0;entryDx=0;entryDy=0;entryPerimeter=0;" edge="1" parent="1" source="A64FUQjrGfB-0dtbxXoB-1" target="A64FUQjrGfB-0dtbxXoB-2">
          <mxGeometry relative="1" as="geometry" />
        </mxCell>
      </root>
    </mxGraphModel>
  </diagram>
</mxfile>
